<?xml version="1.0" encoding="utf-8"?>
<!-- Generator: Adobe Illustrator 23.0.1, SVG Export Plug-In . SVG Version: 6.00 Build 0)  -->
<svg version="1.1" id="Layer_1" xmlns="http://www.w3.org/2000/svg" xmlns:xlink="http://www.w3.org/1999/xlink" x="0px" y="0px"
	 viewBox="0 0 72 72" style="enable-background:new 0 0 72 72;" xml:space="preserve">
<style type="text/css">
	.st0{fill:#FFFFFF;}
</style>
<title>Soundcloud</title>
<desc>A solid styled icon from Orion Icon Library.</desc>
<path class="st0" d="M3.5,36.6c-0.1,0-0.2,0.1-0.3,0.3l-0.7,6.4l0.7,6.3c0,0.2,0.2,0.3,0.3,0.3c0.1,0,0.2-0.1,0.3-0.3l0.8-6.3
	l-0.8-6.4C3.7,36.7,3.6,36.6,3.5,36.6z M0.8,39c-0.1,0-0.2,0.1-0.3,0.3L0,43.3l0.6,3.9c0,0.1,0.1,0.2,0.3,0.2c0.1,0.1,0.2,0,0.2-0.2
	l0.7-3.9l-0.7-3.9C1.2,39.2,1,39.1,0.8,39C0.8,39,0.8,39,0.8,39z M6.3,35.3c-0.2,0-0.3,0.1-0.3,0.3c0,0,0,0.1,0,0.1l-0.7,7.7L6,50.8
	c0,0.2,0.2,0.3,0.3,0.3c0.2,0,0.3-0.1,0.3-0.3c0,0,0-0.1,0-0.1l0.8-7.4l-0.8-7.7C6.7,35.5,6.6,35.3,6.3,35.3
	C6.4,35.3,6.3,35.3,6.3,35.3z M9.1,35.1c-0.2,0-0.4,0.2-0.5,0.5L8,43.4l0.7,7.7c0,0.2,0.2,0.5,0.5,0.5c0.2,0,0.5-0.2,0.5-0.5
	c0,0,0,0,0,0l0.7-7.7l-0.7-7.9C9.6,35.3,9.4,35.1,9.1,35.1C9.2,35.1,9.2,35.1,9.1,35.1z M12.5,36c0-0.2-0.2-0.5-0.5-0.5
	c-0.2,0-0.5,0.2-0.5,0.5L11,43.3l0.6,7.7c0,0.2,0.2,0.5,0.5,0.5c0.2,0,0.5-0.2,0.5-0.5l0.7-7.7L12.5,36z M15,30.9
	c-0.3,0-0.5,0.2-0.6,0.5c0,0,0,0,0,0.1l-0.6,11.9l0.6,7.7c0,0.3,0.3,0.6,0.6,0.6s0.6-0.3,0.6-0.6l0.7-7.7l-0.7-11.9
	C15.4,31.2,15.2,30.9,15,30.9z M17.8,28.1c-0.3,0-0.5,0.2-0.6,0.5c0,0,0,0,0,0.1l-0.6,14.6l0.6,7.7c0,0.3,0.3,0.6,0.6,0.6
	c0.3,0,0.6-0.3,0.6-0.6c0,0,0,0,0,0l0.6-7.7l-0.6-14.6C18.5,28.4,18.1,28.1,17.8,28.1z M20.8,26.9c-0.4,0-0.7,0.3-0.7,0.7l-0.5,15.9
	l0.5,7.5c0,0.4,0.3,0.7,0.7,0.7c0.4,0,0.7-0.3,0.7-0.7l0.6-7.5l-0.6-15.9C21.5,27.2,21.3,26.9,20.8,26.9
	C20.9,26.9,20.9,26.9,20.8,26.9z M24.6,27c0-0.4-0.3-0.7-0.7-0.7c-0.4,0-0.7,0.3-0.7,0.7l0,0l-0.5,16.5l0.5,7.5
	c0,0.4,0.3,0.7,0.7,0.7c0.4,0,0.7-0.3,0.7-0.7l0.6-7.5L24.6,27z M26.8,26.6c-0.4,0-0.8,0.3-0.8,0.8c0,0,0,0,0,0l-0.5,16l0.5,7.4
	c0,0.4,0.4,0.8,0.8,0.8c0.4,0,0.8-0.4,0.8-0.8c0,0,0,0,0,0l0.5-7.4l-0.5-16C27.6,27,27.3,26.7,26.8,26.6
	C26.8,26.6,26.8,26.6,26.8,26.6z M29.9,27.1c-0.5,0-0.9,0.4-0.9,0.9c0,0,0,0,0,0l-0.3,15.4l0.3,7.4c0,0.4,0.4,0.8,0.8,0.8
	c0,0,0.1,0,0.1,0c0.5,0,0.8-0.3,0.9-0.9l0.5-7.4l-0.5-15.4C30.6,27.5,30.3,27.2,29.9,27.1z M33.4,24.3c-0.1-0.1-0.3-0.1-0.5-0.1
	c-0.2,0-0.3,0-0.5,0.1c-0.3,0.2-0.4,0.5-0.5,0.8v0.2l-0.5,18l0.3,7.3c0,0.2,0.1,0.4,0.2,0.6c0.2,0.2,0.4,0.3,0.7,0.3
	c0.2,0,0.5-0.1,0.7-0.2c0.2-0.2,0.2-0.4,0.2-0.7V50l0.3-6.6l-0.2-18.3C33.8,24.8,33.6,24.5,33.4,24.3z M36.4,22.6
	c-0.1-0.1-0.3-0.1-0.5-0.1c-0.2,0-0.4,0.1-0.6,0.2c-0.2,0.2-0.3,0.5-0.3,0.8v0.1l-0.5,19.8l0.2,3.7l0.1,3.5c0,0.6,0.5,1,1,1
	c0.6,0,1-0.5,1-1l0.5-7.2L37,23.5C36.9,23.1,36.7,22.8,36.4,22.6z M63.2,34c-1.2,0-2.3,0.2-3.4,0.7c-0.7-8.1-7.4-14.3-15.5-14.3
	c-1.9,0-3.8,0.3-5.6,1c-0.7,0.2-0.9,0.6-0.9,1v28.2c0,0.5,0.4,1,0.9,1h24.6c4.9,0,8.8-3.9,8.8-8.8S68.1,34,63.2,34
	C63.2,34,63.2,34,63.2,34z"/>
</svg>
