<svg xmlns="http://www.w3.org/2000/svg" viewBox="0 0 72 72"><defs><style>.cls-1{fill:#fff;}</style></defs><title>Asset 1</title><g id="Layer_2" data-name="Layer 2"><g id="Logo"><path class="cls-1" d="M36,6.49c9.61,0,10.75,0,14.55.21a19.71,19.71,0,0,1,6.68,1.24,11.11,11.11,0,0,1,4.14,2.69,11.11,11.11,0,0,1,2.69,4.14,19.71,19.71,0,0,1,1.24,6.68c.18,3.8.21,4.94.21,14.55s0,10.75-.21,14.55a19.71,19.71,0,0,1-1.24,6.68,11.89,11.89,0,0,1-6.83,6.83,19.71,19.71,0,0,1-6.68,1.24c-3.8.18-4.94.21-14.55.21s-10.75,0-14.55-.21a19.71,19.71,0,0,1-6.68-1.24,11.11,11.11,0,0,1-4.14-2.69,11.11,11.11,0,0,1-2.69-4.14A19.71,19.71,0,0,1,6.7,50.55c-.18-3.8-.21-4.94-.21-14.55s0-10.75.21-14.55a19.71,19.71,0,0,1,1.24-6.68,11.11,11.11,0,0,1,2.69-4.14,11.11,11.11,0,0,1,4.14-2.69A19.71,19.71,0,0,1,21.45,6.7c3.8-.18,4.94-.21,14.55-.21M36,0C26.22,0,25,0,21.16.22a26.33,26.33,0,0,0-8.74,1.67A17.64,17.64,0,0,0,6,6a17.64,17.64,0,0,0-4.15,6.38A26.33,26.33,0,0,0,.22,21.16C0,25,0,26.22,0,36S0,47,.22,50.84a26.33,26.33,0,0,0,1.67,8.74A17.64,17.64,0,0,0,6,66a17.64,17.64,0,0,0,6.38,4.15,26.33,26.33,0,0,0,8.74,1.67C25,72,26.22,72,36,72s11,0,14.84-.22a26.33,26.33,0,0,0,8.74-1.67A18.37,18.37,0,0,0,70.11,59.58a26.33,26.33,0,0,0,1.67-8.74C72,47,72,45.78,72,36s0-11-.22-14.84a26.33,26.33,0,0,0-1.67-8.74A17.64,17.64,0,0,0,66,6a17.64,17.64,0,0,0-6.38-4.15A26.33,26.33,0,0,0,50.84.22C47,0,45.78,0,36,0Z"/><path class="cls-1" d="M36,17.51A18.49,18.49,0,1,0,54.49,36,18.49,18.49,0,0,0,36,17.51ZM36,48A12,12,0,1,1,48,36,12,12,0,0,1,36,48Z"/><circle class="cls-1" cx="55.22" cy="16.78" r="4.32"/></g></g></svg>